<svg width="46" height="40" viewBox="0 0 46 40" fill="none" xmlns="http://www.w3.org/2000/svg">
<path d="M22.5625 12.5L29.1667 19.0833V18.75C29.1667 17.0924 28.5082 15.5027 27.3361 14.3306C26.164 13.1585 24.5743 12.5 22.9167 12.5H22.5625ZM13.6042 14.1667L16.8333 17.3958C16.7292 17.8333 16.6667 18.2708 16.6667 18.75C16.6667 20.4076 17.3251 21.9973 18.4972 23.1694C19.6694 24.3415 21.2591 25 22.9167 25C23.375 25 23.8333 24.9375 24.2708 24.8333L27.5 28.0625C26.1042 28.75 24.5625 29.1667 22.9167 29.1667C20.154 29.1667 17.5045 28.0692 15.551 26.1157C13.5975 24.1622 12.5 21.5127 12.5 18.75C12.5 17.1042 12.9167 15.5625 13.6042 14.1667ZM2.08333 2.64583L6.83333 7.39583L7.77083 8.33333C4.33333 11.0417 1.625 14.5833 0 18.75C3.60417 27.8958 12.5 34.375 22.9167 34.375C26.1458 34.375 29.2292 33.75 32.0417 32.625L32.9375 33.5L39.0208 39.5833L41.6667 36.9375L4.72917 0M22.9167 8.33333C25.6793 8.33333 28.3289 9.4308 30.2824 11.3843C32.2359 13.3378 33.3333 15.9873 33.3333 18.75C33.3333 20.0833 33.0625 21.375 32.5833 22.5417L38.6875 28.6458C41.8125 26.0417 44.3125 22.625 45.8333 18.75C42.2292 9.60417 33.3333 3.125 22.9167 3.125C20 3.125 17.2083 3.64583 14.5833 4.58333L19.1042 9.0625C20.2917 8.60417 21.5625 8.33333 22.9167 8.33333Z" fill="#9F9F9F"/>
</svg>
