<svg width="113" height="100" viewBox="0 0 113 100" fill="none" xmlns="http://www.w3.org/2000/svg">
<g clip-path="url(#clip0_52_31776)">
<path d="M111.82 47.1484C101.229 26.4824 80.2598 12.5 56.25 12.5C32.2402 12.5 11.2656 26.4922 0.679687 47.1504C0.232894 48.0342 0.000106812 49.0107 0.000106812 50.001C0.000106812 50.9913 0.232894 51.9678 0.679687 52.8516C11.2715 73.5176 32.2402 87.5 56.25 87.5C80.2598 87.5 101.234 73.5078 111.82 52.8496C112.267 51.9658 112.5 50.9893 112.5 49.999C112.5 49.0087 112.267 48.0322 111.82 47.1484ZM56.25 78.125C50.6874 78.125 45.2497 76.4755 40.6246 73.3851C35.9995 70.2947 32.3946 65.9021 30.2659 60.763C28.1372 55.6238 27.5802 49.9688 28.6654 44.5131C29.7506 39.0574 32.4293 34.046 36.3626 30.1126C40.296 26.1793 45.3074 23.5006 50.7631 22.4154C56.2188 21.3302 61.8738 21.8872 67.013 24.0159C72.1521 26.1446 76.5447 29.7495 79.6351 34.3746C82.7255 38.9997 84.375 44.4374 84.375 50C84.3768 53.6939 83.6506 57.352 82.2378 60.7651C80.825 64.1782 78.7534 67.2794 76.1414 69.8914C73.5294 72.5034 70.4282 74.575 67.0151 75.9878C63.602 77.4006 59.9439 78.1268 56.25 78.125ZM56.25 31.25C54.5764 31.2734 52.9137 31.5224 51.3066 31.9902C52.6313 33.7904 53.267 36.0056 53.0984 38.2343C52.9298 40.4629 51.9681 42.5573 50.3877 44.1377C48.8073 45.7181 46.7129 46.6798 44.4843 46.8484C42.2556 47.017 40.0404 46.3813 38.2402 45.0566C37.2152 48.8332 37.4002 52.8361 38.7693 56.502C40.1384 60.1678 42.6226 63.3121 45.8723 65.4921C49.122 67.6722 52.9735 68.7782 56.8847 68.6547C60.7959 68.5311 64.5699 67.1841 67.6755 64.8033C70.7811 62.4225 73.0619 59.1278 74.1969 55.3828C75.3319 51.6378 75.2639 47.6312 74.0025 43.9269C72.7412 40.2226 70.3499 37.0071 67.1653 34.733C63.9807 32.459 60.1632 31.2408 56.25 31.25Z" fill="#9F9F9F"/>
</g>
<defs>
<clipPath id="clip0_52_31776">
<rect width="112.5" height="100" fill="white"/>
</clipPath>
</defs>
</svg>
